<?xml version="1.0" standalone="no"?><!DOCTYPE svg PUBLIC "-//W3C//DTD SVG 1.1//EN" "http://www.w3.org/Graphics/SVG/1.1/DTD/svg11.dtd"><svg t="1763037280309" class="icon" viewBox="0 0 1024 1024" version="1.1" xmlns="http://www.w3.org/2000/svg" p-id="1831" xmlns:xlink="http://www.w3.org/1999/xlink" width="32" height="32"><path d="M932.69375 562.0062499999999s-9.956249999999999 3.3749999999999996-11.474999999999998 3.3749999999999996h-72.1125v317.25A79.3125 79.3125 0 0 1 769.79375 962H571.5125v-218.13750000000002a39.65625 39.65625 0 0 0-39.65625-39.65625h-39.7125a39.65625 39.65625 0 0 0-39.65625 39.65625V962H254.20624999999995a79.3125 79.3125 0 0 1-79.3125-79.3125V565.4375H98.16874999999999l-3.20625-0.5625C93.89374999999995 564.3125 91.25 561.9499999999999 91.25 561.9499999999999a79.3125 79.3125 0 0 1 0-112.21875L455.91875 85.23125000000005a79.3125 79.3125 0 0 1 112.1625 0l364.6125 364.55625000000003c30.9375 30.993750000000002 30.9375 81.225 0 112.21875z m-42.075-84.15L540.06875 127.25a39.65625 39.65625 0 0 0-56.1375 0L133.4375 477.85625a39.09374999999999 39.09374999999999 0 0 0-5.456250000000001 47.868750000000006h86.625v356.9625c0 21.937500000000004 17.775000000000002 39.65625 39.65625 39.65625h158.625v-178.48125c0-43.81875 35.550000000000004-79.3125 79.3125-79.3125h39.7125c43.7625 0 79.3125 35.49375 79.3125 79.3125v178.48125h158.625c21.937500000000004 0 39.65625-17.775000000000002 39.65625-39.65625V525.725h86.625a39.09374999999999 39.09374999999999 0 0 0-5.456250000000001-47.868750000000006z m-239.79375-126.50625l-14.0625-14.0625a9.899999999999999 9.899999999999999 0 1 1 14.0625-13.95l14.0625 14.00625a9.899999999999999 9.899999999999999 0 1 1-14.0625 14.0625zM526.8499999999999 231.59375000000006a20.75625 20.75625 0 0 0-29.418750000000003 0S346.34374999999994 382.90625 322.32500000000005 406.8125c-11.98125 11.8125-20.081249999999997 14.625000000000002-26.043750000000003 5.9624999999999995-2.9812499999999997-4.2749999999999995 4.89375-12.9375 4.89375-12.9375l182.92499999999998-182.8125a39.65625 39.65625 0 0 1 56.08125 0l70.875 70.81875h-28.125l-56.08125-56.193749999999994z" fill="" p-id="1832"></path><path d="M605.44 291.0933333333333l-16-16a11.264 11.264 0 1 1 16-15.936l15.936 16a11.264 11.264 0 1 1-16 15.936z" fill="" p-id="1833"></path><path d="M269.056 423.7013333333333a11.264 11.264 0 0 1 0-16l16-15.872a11.264 11.264 0 1 1 15.936 15.936l-16 15.936a11.264 11.264 0 0 1-15.936 0z" fill="" p-id="1834"></path></svg>