<?xml version="1.0" standalone="no"?><!DOCTYPE svg PUBLIC "-//W3C//DTD SVG 1.1//EN" "http://www.w3.org/Graphics/SVG/1.1/DTD/svg11.dtd"><svg t="1764925495902" class="icon" viewBox="0 0 1024 1024" version="1.1" xmlns="http://www.w3.org/2000/svg" p-id="1609" xmlns:xlink="http://www.w3.org/1999/xlink" width="32" height="32"><path d="M876.832 325.856h-2.864c-21.056 0-38.336 6.048-54.96 16.352-14.576-42.48-51.632-73.088-99.36-73.088a110.24 110.24 0 0 0-57.824 16.352c-14.56-42.496-51.616-73.088-99.376-73.088a108.064 108.064 0 0 0-51.232 12.832V115.888c0-59.552-45.056-107.808-105.024-107.808S297.6 56.368 297.6 115.888v418.56L231.68 468.8c-42.4-42.128-117.472-36.128-153.6 0C41.968 504.912 18.288 577.568 70 629.312l303.28 301.28c6.24 6.208 13.12 11.408 20.368 15.792 55.296 45.104 118.688 71.792 252.656 71.792 306.096 0 334.448-165.136 334.448-368.832V433.696c-0.032-59.552-43.936-107.84-103.936-107.84m46.72 323.456c0 172.352-0.8 312.096-277.28 312.096-117.088 0-187.408-26.096-240.688-79.008L118.464 597.152c-25.408-25.408-19.008-57.856 1.76-78.688 20.8-20.768 58.96-21.504 79.056-1.568a373720.416 373720.416 0 0 0 155.488 154.56V127.248c0-28.192 23.04-51.072 51.472-51.072 28.416 0 47.84 22.88 47.84 51.072v346.16h0.56a28.512 28.512 0 0 0 28.032 34.08 28.48 28.48 0 0 0 28.016-34.08h0.576V331.536c0-28.192 20.528-51.056 48.96-51.056 0 0 50.336-0.688 50.336 51.056V518.8h0.56a28.496 28.496 0 0 0 28.032 34.08 28.48 28.48 0 0 0 28.032-34.08h0.56V388.272c0-28.176 20.224-51.056 48.64-51.056 0 0 51.392 3.216 51.392 51.056v164.592h0.56a28.512 28.512 0 0 0 28.032 34.08c15.792 0 27.872-12.704 27.872-28.4 0-1.936-0.208-3.84-0.528-5.68h0.528V440.512c0-28.192 21.184-51.072 49.6-51.072 0 0 49.824-2 49.824 51.072v208.8h-0.112" p-id="1610"></path></svg>