<?xml version="1.0" standalone="no"?><!DOCTYPE svg PUBLIC "-//W3C//DTD SVG 1.1//EN" "http://www.w3.org/Graphics/SVG/1.1/DTD/svg11.dtd"><svg t="1763110164319" class="icon" viewBox="0 0 1024 1024" version="1.1" xmlns="http://www.w3.org/2000/svg" p-id="20793" xmlns:xlink="http://www.w3.org/1999/xlink" width="200" height="200"><path d="M942.545455 212.247273H292.817455a34.909091 34.909091 0 0 1 0-69.818182H942.545455a34.909091 34.909091 0 0 1 0 69.818182zM977.454545 512a34.909091 34.909091 0 0 0-34.90909-34.909091H292.817455a34.909091 34.909091 0 0 0 0 69.818182H942.545455A34.909091 34.909091 0 0 0 977.454545 512z m0 334.615273a34.909091 34.909091 0 0 0-34.90909-34.909091H292.817455a34.909091 34.909091 0 0 0 0 69.818182H942.545455a34.909091 34.909091 0 0 0 34.90909-34.909091zM144.709818 177.338182a34.909091 34.909091 0 0 0-34.909091-34.909091H81.454545a34.909091 34.909091 0 0 0 0 69.818182h28.346182a34.909091 34.909091 0 0 0 34.909091-34.909091z m0 334.661818a34.909091 34.909091 0 0 0-34.909091-34.909091H81.454545a34.909091 34.909091 0 1 0 0 69.818182h28.346182a34.909091 34.909091 0 0 0 34.909091-34.909091z m0 334.615273a34.909091 34.909091 0 0 0-34.909091-34.909091H81.454545a34.909091 34.909091 0 0 0 0 69.818182h28.346182a34.909091 34.909091 0 0 0 34.909091-34.909091z" p-id="20794"></path></svg>