<?xml version="1.0" standalone="no"?><!DOCTYPE svg PUBLIC "-//W3C//DTD SVG 1.1//EN" "http://www.w3.org/Graphics/SVG/1.1/DTD/svg11.dtd"><svg t="1763110114406" class="icon" viewBox="0 0 1024 1024" version="1.1" xmlns="http://www.w3.org/2000/svg" p-id="11157" xmlns:xlink="http://www.w3.org/1999/xlink" width="200" height="200"><path d="M891.77 263.89l-345-190.97c-21.49-11.89-48.05-11.89-69.54 0l-345 190.97C111.03 275.62 98 297.16 98 320.44v383.11c0 23.28 13.03 44.82 34.23 56.55l345 190.97c21.49 11.89 48.05 11.89 69.54 0l345-190.97c21.2-11.73 34.23-33.27 34.23-56.55V320.44c0-23.28-13.03-44.82-34.23-56.55zM861 672.2c0.01 23.12-12.9 44.55-33.98 56.44l-280 157.98c-22.17 12.51-49.86 12.51-72.03 0l-280-157.98C173.9 716.75 161 695.32 161 672.2V351.8c0-23.12 12.91-44.54 33.98-56.44l280-157.98c22.17-12.51 49.86-12.51 72.03 0l280 157.98C848.1 307.25 861 328.68 861 351.8v320.4z" p-id="11158"></path><path d="M748.9 405.81c-13.6-11.28-33.78-9.4-45.06 4.2l-131.67 158.7-83.76-186.59c-7.24-16.13-26.18-23.33-42.3-16.09a31.836 31.836 0 0 0-14.65 13.28L270.9 572.84c-11.28 13.6-9.4 33.78 4.2 45.06 13.6 11.28 33.77 9.4 45.06-4.2l131.12-158.04 83.59 186.21c7.24 16.13 26.18 23.33 42.3 16.09 5.42-2.43 9.83-6.2 13.02-10.72L753.1 450.88c11.28-13.61 9.41-33.79-4.2-45.07z" p-id="11159"></path></svg>